<svg width="25" height="32" viewBox="0 0 25 32" fill="none" xmlns="http://www.w3.org/2000/svg">
<path d="M17.369 4.86488C18.5397 3.59281 19.3316 1.8267 19.1148 0.0655518C17.4282 0.126646 15.384 1.07043 14.1733 2.34239C13.0879 3.46852 12.1377 5.26818 12.3913 6.99476C14.2734 7.12401 16.1962 6.13491 17.369 4.86488ZM20.961 17.0275C20.925 13.0791 24.0409 11.1828 24.179 11.0912C22.4272 8.40995 19.699 8.04307 18.7274 8.00168C16.4042 7.75424 14.1977 9.42961 13.0183 9.42961C11.8436 9.42961 10.0267 8.03416 8.10006 8.07172C5.56712 8.11401 3.23319 9.61097 1.93238 11.9836C-0.698909 16.7564 1.25797 23.8266 3.82192 27.698C5.07529 29.5932 6.56767 31.7194 8.52733 31.6425C10.4191 31.5656 11.1322 30.3654 13.4145 30.3654C15.6978 30.3654 16.3371 31.6425 18.3346 31.604C20.3673 31.5656 21.6537 29.6723 22.8964 27.771C24.3343 25.573 24.927 23.445 24.9609 23.3375C24.9173 23.3118 21.0027 21.749 20.961 17.0275Z" fill="white"/>
</svg>
