<svg width="41" height="42" viewBox="0 0 41 42" fill="none" xmlns="http://www.w3.org/2000/svg">
<ellipse cx="20.5" cy="21" rx="20.5" ry="21" fill="#C4C4C4"/>
<path d="M20.7515 11.5293C25.7847 11.5293 29.8644 15.6096 29.8644 20.6422C29.8644 25.6754 25.7847 29.755 20.7515 29.755C15.7183 29.755 11.6387 25.6753 11.6387 20.6422C11.6387 15.6096 15.7184 11.5293 20.7515 11.5293Z" fill="black"/>
<path d="M21.8607 17.8032H23.0352V16.0684H21.6546V16.0746C19.9818 16.1339 19.639 17.0742 19.6087 18.0618H19.6053V18.9281H18.4662V20.6271H19.6053V25.1812H21.322V20.6271H22.7282L22.9998 18.9281H21.3225V18.4047C21.3225 18.0709 21.5446 17.8032 21.8607 17.8032Z" fill="white"/>
</svg>
