<svg width="51" height="51" viewBox="0 0 51 51" fill="none" xmlns="http://www.w3.org/2000/svg">
<circle cx="25.6523" cy="25.7695" r="25" fill="#FFF1E4"/>
<path d="M20.6177 22.2895C20.671 20.8629 21.1377 19.7629 22.0177 18.9895C22.8977 18.2162 24.091 17.8295 25.5977 17.8295C26.5977 17.8295 27.451 18.0029 28.1577 18.3495C28.8777 18.6962 29.4177 19.1695 29.7777 19.7695C30.151 20.3695 30.3377 21.0429 30.3377 21.7895C30.3377 22.6695 30.1177 23.3895 29.6777 23.9495C29.2377 24.4962 28.7243 24.8695 28.1377 25.0695V25.1495C28.8977 25.4029 29.4977 25.8229 29.9377 26.4095C30.3777 26.9962 30.5977 27.7495 30.5977 28.6695C30.5977 29.4962 30.4043 30.2295 30.0177 30.8695C29.6443 31.4962 29.091 31.9895 28.3577 32.3495C27.6377 32.7095 26.7777 32.8895 25.7777 32.8895C24.1777 32.8895 22.8977 32.4962 21.9377 31.7095C20.991 30.9229 20.491 29.7362 20.4377 28.1495H23.7577C23.771 28.7362 23.9377 29.2029 24.2577 29.5495C24.5777 29.8829 25.0443 30.0495 25.6577 30.0495C26.1777 30.0495 26.5777 29.9029 26.8577 29.6095C27.151 29.3029 27.2977 28.9029 27.2977 28.4095C27.2977 27.7695 27.091 27.3095 26.6777 27.0295C26.2777 26.7362 25.631 26.5895 24.7377 26.5895H24.0977V23.8095H24.7377C25.4177 23.8095 25.9643 23.6962 26.3777 23.4695C26.8043 23.2295 27.0177 22.8095 27.0177 22.2095C27.0177 21.7295 26.8843 21.3562 26.6177 21.0895C26.351 20.8229 25.9843 20.6895 25.5177 20.6895C25.011 20.6895 24.631 20.8429 24.3777 21.1495C24.1377 21.4562 23.9977 21.8362 23.9577 22.2895H20.6177Z" fill="black"/>
</svg>
