<svg width="50" height="51" viewBox="0 0 50 51" fill="none" xmlns="http://www.w3.org/2000/svg">
<circle cx="25" cy="25.7695" r="25" fill="#FFF1E4"/>
<path d="M19.5671 29.26C20.0204 28.9 20.2271 28.7333 20.1871 28.76C21.4938 27.68 22.5204 26.7933 23.2671 26.1C24.0271 25.4067 24.6671 24.68 25.1871 23.92C25.7071 23.16 25.9671 22.42 25.9671 21.7C25.9671 21.1533 25.8404 20.7267 25.5871 20.42C25.3338 20.1133 24.9538 19.96 24.4471 19.96C23.9404 19.96 23.5404 20.1533 23.2471 20.54C22.9671 20.9133 22.8271 21.4467 22.8271 22.14H19.5271C19.5538 21.0067 19.7938 20.06 20.2471 19.3C20.7138 18.54 21.3204 17.98 22.0671 17.62C22.8271 17.26 23.6671 17.08 24.5871 17.08C26.1738 17.08 27.3671 17.4867 28.1671 18.3C28.9804 19.1133 29.3871 20.1733 29.3871 21.48C29.3871 22.9067 28.9004 24.2333 27.9271 25.46C26.9538 26.6733 25.7138 27.86 24.2071 29.02H29.6071V31.8H19.5671V29.26Z" fill="black"/>
</svg>
