<svg width="1246" height="355" viewBox="0 0 1246 355" fill="none" xmlns="http://www.w3.org/2000/svg">
<path d="M0 108.633C0 98.0896 8.18511 89.3568 18.7066 88.675L1149.71 15.3799C1161.24 14.6327 1171 23.7835 1171 35.3381V335C1171 346.046 1162.05 355 1151 355H20C8.9543 355 0 346.046 0 335V108.633Z" fill="#F3FDFE"/>
<path d="M1101.09 140.866C1098.45 115.394 1085.93 90.8778 1065.95 72.0804C1045.97 53.283 1019.96 41.5467 992.979 39.152L992.848 141.364L1101.09 140.866Z" fill="#FFD6B0"/>
<path d="M1165.28 264.616C1162.64 239.144 1165.28 309.117 1165.28 195.332C1145.3 176.535 1119.29 164.799 1092.31 162.404L1092.17 264.616L1165.28 264.616Z" fill="#89CFC4"/>
<path d="M1163.9 48.7551C1148.28 49.8652 1133.4 57.3158 1122.52 69.4678C1111.64 81.6198 1105.66 97.4778 1105.9 113.553C1106.13 129.628 1112.55 144.604 1123.76 155.186C1134.97 165.768 1150.04 171.089 1165.65 169.979L1164.78 109.367L1163.9 48.7551Z" fill="#A8DAFF"/>
<ellipse cx="1033.78" cy="204.5" rx="50" ry="51.5" fill="#D9DFFF"/>
</svg>
