<svg width="27" height="29" viewBox="0 0 27 29" fill="none" xmlns="http://www.w3.org/2000/svg">
<path d="M20.3303 9.82221C17.1031 7.99018 11.9232 5.04837 3.88885 0.482668C3.34723 0.119589 2.72405 0.0720061 2.18555 0.256991L15.9702 14.2473L20.3303 9.82221Z" fill="#32BBFF"/>
<path d="M2.18494 0.256836C2.08404 0.291528 1.98581 0.333381 1.89191 0.38393C1.29729 0.710389 0.860352 1.3386 0.860352 2.13303V26.3614C0.860352 27.1558 1.29729 27.784 1.89191 28.1104C1.9857 28.161 2.08382 28.2029 2.18472 28.2379L15.9697 14.2473L2.18494 0.256836Z" fill="#32BBFF"/>
<path d="M15.9695 14.2471L2.18457 28.2378C2.72319 28.4241 3.34648 28.3802 3.88831 28.0118C11.6798 23.5837 16.8013 20.6768 20.0659 18.8292C20.1568 18.7774 20.2458 18.7268 20.3338 18.6766L15.9695 14.2471Z" fill="#32BBFF"/>
<path d="M0.860352 14.2471V26.3613C0.860352 27.1558 1.29729 27.7839 1.89191 28.1103C1.9857 28.1609 2.08382 28.2028 2.18472 28.2378L15.9697 14.2471H0.860352Z" fill="#2C9FD9"/>
<path d="M3.88902 0.482345C3.24573 0.0512586 2.4872 0.0635407 1.89258 0.38383L15.7611 14.4594L20.3304 9.8219C17.1032 7.98987 11.9234 5.04806 3.88902 0.482345Z" fill="#29CC5E"/>
<path d="M15.7612 14.0352L1.89258 28.1107C2.48731 28.4309 3.24573 28.4494 3.88902 28.0121C11.6806 23.5841 16.802 20.6771 20.0666 18.8295C20.1575 18.7778 20.2465 18.7271 20.3345 18.6769L15.7612 14.0352Z" fill="#D93F21"/>
<path d="M26.0861 14.2475C26.0861 13.5762 25.7523 12.8988 25.0908 12.5231C25.0908 12.5231 23.8538 11.8225 20.062 9.66992L15.5518 14.2475L20.0664 18.8295C23.8166 16.6925 25.0908 15.9718 25.0908 15.9718C25.7523 15.5963 26.0861 14.9188 26.0861 14.2475Z" fill="#FFD500"/>
<path d="M25.0908 15.9715C25.7523 15.5958 26.0861 14.9183 26.0861 14.2471H15.5518L20.0664 18.8292C23.8167 16.6921 25.0908 15.9715 25.0908 15.9715Z" fill="#FFAA00"/>
</svg>
