<svg width="42" height="42" viewBox="0 0 42 42" fill="none" xmlns="http://www.w3.org/2000/svg">
<circle cx="21" cy="21" r="21" fill="#C4C4C4"/>
<path d="M30.5468 14.9619C30.2326 15.1066 29.9096 15.2287 29.5795 15.3279C29.9703 14.869 30.2682 14.3292 30.4501 13.7384C30.4909 13.606 30.4486 13.4611 30.3438 13.3744C30.239 13.2878 30.0936 13.2774 29.9783 13.3483C29.2773 13.7799 28.5211 14.0901 27.7281 14.2715C26.9293 13.4612 25.8444 13 24.7229 13C22.3554 13 20.4294 14.9996 20.4294 17.4573C20.4294 17.6509 20.4412 17.8434 20.4645 18.0332C17.5268 17.7655 14.7956 16.2664 12.9202 13.8779C12.8533 13.7928 12.7504 13.7469 12.6449 13.7557C12.5395 13.7642 12.4447 13.826 12.3914 13.9209C12.011 14.5986 11.8099 15.3736 11.8099 16.1622C11.8099 17.2362 12.1792 18.2552 12.8317 19.0515C12.6333 18.9802 12.4408 18.891 12.257 18.7852C12.1584 18.7281 12.038 18.729 11.94 18.7873C11.842 18.8457 11.7805 18.953 11.7779 19.0703C11.7774 19.09 11.7774 19.1097 11.7774 19.1298C11.7774 20.7329 12.6085 22.1763 13.8792 22.963C13.77 22.9517 13.6609 22.9352 13.5525 22.9137C13.4408 22.8916 13.3259 22.9322 13.2505 23.0207C13.1751 23.1091 13.1501 23.2324 13.1849 23.3449C13.6552 24.8694 14.8661 25.9907 16.3299 26.3326C15.1158 27.1221 13.7274 27.5356 12.2698 27.5356C11.9657 27.5356 11.6598 27.5171 11.3605 27.4803C11.2118 27.4619 11.0696 27.5531 11.0189 27.6999C10.9683 27.8468 11.022 28.0106 11.1485 28.0948C13.0209 29.3412 15.186 30 17.4095 30C21.7808 30 24.5153 27.86 26.0395 26.0647C27.9401 23.8262 29.0302 20.8632 29.0302 17.9356C29.0302 17.8133 29.0284 17.6898 29.0247 17.5667C29.7746 16.9801 30.4202 16.2703 30.9456 15.4544C31.0254 15.3305 31.0167 15.1667 30.9243 15.0527C30.832 14.9384 30.6781 14.9015 30.5468 14.9619Z" fill="black"/>
</svg>
